<svg width="68" height="66" viewBox="0 0 68 66" fill="none" xmlns="http://www.w3.org/2000/svg">
<path d="M18.4989 20.0723L29.4993 1.57502e-05L68 52.5702C68 52.5702 54.5 51.6144 49.5 50.6585C44.5 49.7027 43 49.2248 43 49.2248C43 49.2248 31.4999 46.3573 28 38.2328C24.5001 30.1084 30.9989 28.1967 30.9989 28.1967C30.9989 28.1967 26.4996 33.4538 31.9999 37.277C37.5003 41.1002 50.4988 42.056 50.4988 42.056C50.4988 42.056 32 18.1608 31 17.205C30 16.2492 29 16.2492 28 17.205C27 18.1608 24 23.4178 24 23.4178L18.4989 20.0723Z" fill="white"/>
<path d="M25.3339 26.6352C25.0126 26.3635 25.2748 25.8436 25.6843 25.9405L28.9492 26.7132C29.0958 26.7479 29.2494 26.6973 29.3467 26.5822L31.5132 24.0205C31.7849 23.6992 32.3048 23.9614 32.2079 24.3709L31.4352 27.6358C31.4005 27.7824 31.4511 27.936 31.5662 28.0333L34.1279 30.1998C34.4493 30.4715 34.187 30.9914 33.7775 30.8945L30.5127 30.1218C30.3661 30.0871 30.2124 30.1377 30.1151 30.2528L27.9486 32.8146C27.6769 33.1359 27.157 32.8736 27.2539 32.4641L28.0266 29.1993C28.0613 29.0527 28.0107 28.899 27.8956 28.8017L25.3339 26.6352Z" fill="white"/>
<path d="M16.5 23.4177L0 52.5701H9L22 26.7631L19.25 25.0904L16.5 23.4177Z" fill="url(#paint0_linear_107_96)"/>
<defs>
<linearGradient id="paint0_linear_107_96" x1="11.5" y1="23.4177" x2="11.5" y2="52.5701" gradientUnits="userSpaceOnUse">
<stop stop-color="#DD49BF"/>
<stop offset="1" stop-color="#4E1843"/>
</linearGradient>
</defs>
</svg>
